# xmcd CD database file
# 
# Track frame offsets:
# 	150
# 	14943
# 	28054
# 	43616
# 	55572
# 	72194
# 	82001
# 	93053
# 	104175
# 	115407
# 	127140
# 	137345
# 	148026
# 	170703
# 	189520
# 	200310
# 	210024
# 	219032
# 	234079
# 	248624
# 
# Disc length: 3507 seconds
# 
# Submitted via: Nero 6, 0, 0, 28
# 
# Revision: 0
# Processed by: cddbd v1.4PL0 Copyright (c) Steve Scherf et al.
#
DISCID=160db114
DTITLE=Various Artist - Country Roads Vol 10
DYEAR=1900
DGENRE=
TTITLE0=Ed Bruce - Mama Don't Let Your Babies Grow Up To Be Cowboys
TTITLE1=Tanya Tucker - Jamestown Ferry
TTITLE2=Alex Harvey - Delta Dawn
TTITLE3=Johnny Lee - Hey Bartender
TTITLE4=Janie Fricke - It Ain't Easy Being Easy
TTITLE5=Johnny Cash - Ballad Of A Teenage Queen
TTITLE6=Mel McDaniel - Stand Up
TTITLE7=Ned Miller - Do What You Do, Do Well
TTITLE8=Charlie Louvin - If Only I Could Win Your Love
TTITLE9=Skeeter Davis - End Of The World
TTITLE10=Faron Young - Hello Walls
TTITLE11=The Everly Brothers - Devoted To You
TTITLE12=The Amazing Rhythm Aces - King Of The Cowboys
TTITLE13=Stella Parton - Sleeping With The Enemy
TTITLE14=Hank Thompson - Humpty Dumpty Heart
TTITLE15=Boxcar Willie - Blue Moon Of Kentucky
TTITLE16=The Kendalls - Blue Blue Day
TTITLE17=Becky Hobbs - I Don't Dance With Strangers
TTITLE18=Lee Greenwood - God Bless The USA
TTITLE19=The Bellamy Brothers - Let Your Love Flow
EXTD=
EXTT0=
EXTT1=
EXTT2=
EXTT3=
EXTT4=
EXTT5=
EXTT6=
EXTT7=
EXTT8=
EXTT9=
EXTT10=
EXTT11=
EXTT12=
EXTT13=
EXTT14=
EXTT15=
EXTT16=
EXTT17=
EXTT18=
EXTT19=
PLAYORDER=
